<svg viewBox="0 0 277.92 96.29" xmlns="http://www.w3.org/2000/svg"><g fill="#fff"><path d="m66.12 4.57c.41-2.13 1-3 3.41-3l.13-.64h-7.4l-.12.64c1.24 0 2.42.22 2.42 1.66a10.24 10.24 0 0 1 -.2 1.33l-2.22 11.16c-.51 2.49-1.34 5.52-6 5.52-2.29 0-4.14-1.44-4.14-3.64a14.52 14.52 0 0 1 .38-3l2-10c.41-2.13 1-3 3.4-3l.22-.66h-8.51l-.16.64c1.27 0 2.45.22 2.45 1.66a10.12 10.12 0 0 1 -.19 1.33l-2 10a14.75 14.75 0 0 0 -.39 3.15c0 3.31 3 4.73 6.31 4.73 7.1 0 7.71-3.74 8.38-6.74z"/><path d="m70.29 22.13h2.49c.63-3.59 4.58-13 7.08-13 .45 0 .71.41.71.92a9.07 9.07 0 0 1 -.2 1.34l-1.75 7.61a9.2 9.2 0 0 0 -.29 2 1.33 1.33 0 0 0 1.27 1.47c1.58 0 3.94-2.84 4.86-3.79l-.41-.35c-.8.83-2.14 2.19-2.78 2.19-.18 0-.34-.28-.34-.5a3.77 3.77 0 0 1 .16-1l1.82-8a12 12 0 0 0 .25-1.75c0-1.31-.7-2.1-1.83-2.1-3.2 0-6.12 5.72-7.22 8.56l-.11-.06 1-5.06a9.39 9.39 0 0 0 .29-2 1.3 1.3 0 0 0 -1.23-1.46c-1.59 0-4 2.83-4.87 3.78l.38.36c.83-.83 2.17-2.2 2.81-2.2.16 0 .32.28.32.51a6.31 6.31 0 0 1 -.13 1z"/><path d="m94.44 18.32c-.83.83-2.17 2.19-2.77 2.19-.22 0-.35-.28-.35-.5a5.39 5.39 0 0 1 .13-1l1.71-8.41a10.56 10.56 0 0 0 .29-1.75c0-.92-.45-1.68-1.21-1.68-1.58 0-3.93 2.83-4.86 3.79l.39.35c.82-.83 2.16-2.2 2.8-2.2.16 0 .29.28.29.51a6.31 6.31 0 0 1 -.13 1l-1.73 8.38a11.51 11.51 0 0 0 -.28 2 1.32 1.32 0 0 0 1.28 1.46c1.58 0 3.94-2.83 4.86-3.79zm-1.33-14.07a1.8 1.8 0 0 0 1.81-1.82 1.79 1.79 0 0 0 -1.81-1.81 1.82 1.82 0 1 0 0 3.63"/><path d="m103.46 11.28a22.43 22.43 0 0 0 .38-2.28c0-1-.54-1.78-1.42-1.78-1.46 0-3.53 2.57-4.67 3.78l.41.35c.83-.82 2.16-2.19 2.77-2.19.19 0 .32.28.32.51a5.09 5.09 0 0 1 -.1 1l-1.88 9.13a9.18 9.18 0 0 0 -.18 1.47c0 .89.5 1.24 1.13 1.24 4.24 0 10.69-7.45 10.69-13.27 0-.79-.23-2-1.46-2a1.5 1.5 0 0 0 -1.53 1.49c0 1 .86 1.47.86 3.09 0 4.33-5.25 9.23-6.72 9.23-.26 0-.38-.22-.38-.54a5.93 5.93 0 0 1 .16-1.21z"/><path d="m123.72 20.82a5.17 5.17 0 0 1 -2.06.42c-3.89 0-4.78-2.2-4.78-4.85a18 18 0 0 1 .42-3.2h3.43c2.42 0 5.06-.25 5.06-3 0-2.1-1.91-3-4-3-5.79-.02-7.79 5.41-7.79 9.74 0 3.74 2 5.52 5.16 5.52a14.64 14.64 0 0 0 4.36-.73zm-6.2-8.6c.29-1.4 1.4-4 3.82-4a1.82 1.82 0 0 1 2 1.71c0 2-1.81 2.29-3.08 2.29z"/><path d="m129.34 22.13h2.48c1.71-8.52 4.41-12.4 5.33-12.4.35 0 .67.54 1.4.54a1.54 1.54 0 0 0 1.5-1.59 1.43 1.43 0 0 0 -1.53-1.5c-2.45 0-4.2 4.33-4.8 5.76l-.07-.06.48-2.26a12.9 12.9 0 0 0 .25-2 1.32 1.32 0 0 0 -1.27-1.46c-1.58 0-3.93 2.83-4.86 3.79l.42.35c.83-.83 2.17-2.2 2.77-2.2.22 0 .35.28.35.51a5.29 5.29 0 0 1 -.13 1z"/><path d="m151.2 11.09.48-3.34a10.88 10.88 0 0 0 -3.5-.57c-2.89 0-5.62 1.42-5.62 4.42 0 3.79 5.48 3.82 5.48 6.85a3.24 3.24 0 0 1 -3.48 3c-2.51 0-2.85-1.73-2.95-3.06h-.67l-.45 3.52a10.39 10.39 0 0 0 3.56.58c3.67 0 6.65-1.42 6.65-4.87 0-4.14-5.48-4.05-5.48-7a2.34 2.34 0 0 1 2.5-2.35 2.69 2.69 0 0 1 2.81 2.87z"/><path d="m162 18.32c-.83.83-2.17 2.19-2.77 2.19-.22 0-.35-.28-.35-.5a5.39 5.39 0 0 1 .13-1l1.71-8.41a10.56 10.56 0 0 0 .28-1.74c0-.92-.45-1.68-1.21-1.68-1.58 0-3.93 2.83-4.86 3.79l.39.35c.82-.83 2.16-2.2 2.8-2.2.16 0 .29.28.29.51a6.31 6.31 0 0 1 -.13 1l-1.76 8.37a11.51 11.51 0 0 0 -.28 2 1.32 1.32 0 0 0 1.26 1.47c1.58 0 3.94-2.83 4.86-3.79zm-1.38-14.07a1.8 1.8 0 0 0 1.81-1.82 1.79 1.79 0 0 0 -1.81-1.81 1.82 1.82 0 1 0 0 3.63"/><path d="m172.39 18.32c-.88.89-2.31 2.2-3 2.2a.52.52 0 0 1 -.48-.51 6.74 6.74 0 0 1 .16-1l2.14-10.55h4.17l.19-1h-4.18l1-4.75h-.83c-.83 3.22-2.32 4.75-5.26 4.75l-.19 1h2.65l-2.16 10.54a12.34 12.34 0 0 0 -.25 2 1.37 1.37 0 0 0 1.37 1.47c1.66 0 4.14-2.74 5.1-3.79z"/><path d="m181.83 9.6c-.22-1.28-.6-2.42-1.72-2.42s-4 2.74-4.68 3.37l.38.41c.7-.57 2-1.81 2.77-1.81.51 0 .8.57 1 2l2.07 12.25c-.67.83-2.89 3.31-4.08 3.31-.73 0-1-.87-2-.87a1.48 1.48 0 0 0 -1.47 1.53 1.53 1.53 0 0 0 1.63 1.5c4.07 0 14.11-13.2 14.11-19.75 0-1.18-.58-1.91-1.56-1.91a1.55 1.55 0 0 0 -1.59 1.46c0 1 .95 1.59.95 3.06 0 3-2.9 7.63-3.95 9.19z"/><path d="m208.63 22.46c4.88 0 7.46-5.51 7.46-9.81 0-3.06-1.46-5.47-4.91-5.47-5 0-7.59 5.56-7.59 9.9 0 2.93 1.47 5.38 5 5.38m-2.2-4.55c0-3.06 1.31-9.69 4.63-9.69 1.62 0 2.2 1.46 2.2 3.31 0 3-1.18 9.89-4.56 9.89-1.28 0-2.27-1-2.27-3.51"/><path d="m226 8.47h4.36l.19-1h-4.33l.45-2.3c.44-2.17 1-4.16 2.48-4.16 1.78 0 1.15 2.59 3 2.59a1.55 1.55 0 0 0 1.56-1.5c0-1.31-1.66-2.13-3.46-2.13-4 0-5.58 2.45-6.24 5.87l-.32 1.63h-2.52l-.19 1h2.52l-3.06 15.22c-.44 2.61-1.06 4.11-2.44 4.11-1.72 0-1.12-2.52-3-2.52a1.55 1.55 0 0 0 -1.57 1.47c0 1.46 2 2.09 3.63 2.09 4.49 0 5.61-3.52 6.34-7.13z"/><path d="m0 76h.29.28a2.45 2.45 0 0 1 .43 0 1.12 1.12 0 0 1 .46.21 1.25 1.25 0 0 1 .35.43 2 2 0 0 1 .16.75v13.81h-1.97z"/><path d="m5.47 80.49a1.29 1.29 0 0 1 .25 0h.14a1.71 1.71 0 0 1 .94.26 1.17 1.17 0 0 1 .51.89 5 5 0 0 1 3.54-1.34 3.55 3.55 0 0 1 2.36.69 3.11 3.11 0 0 1 1.07 1.7 5.05 5.05 0 0 1 .13 1q0 .55 0 1.08v6.43h-1.9v-6.38c0-.28 0-.56 0-.82a2.49 2.49 0 0 0 -.13-.74 1.56 1.56 0 0 0 -.67-.91 2.7 2.7 0 0 0 -1.47-.35 4.66 4.66 0 0 0 -1.18.14 3.18 3.18 0 0 0 -.89.36 2.06 2.06 0 0 0 -.57.52 1.1 1.1 0 0 0 -.2.59v7.59h-1.93z"/><path d="m23.68 83a3.29 3.29 0 0 0 -1.13-.83 3.69 3.69 0 0 0 -1.55-.32 3.81 3.81 0 0 0 -.64.06 2.31 2.31 0 0 0 -.66.2 1.31 1.31 0 0 0 -.51.42 1.08 1.08 0 0 0 -.21.68 1.1 1.1 0 0 0 .17.62 1.68 1.68 0 0 0 .48.43 3 3 0 0 0 .72.3 8.54 8.54 0 0 0 .88.24 11.83 11.83 0 0 1 1.32.4 4.29 4.29 0 0 1 1.12.61 2.7 2.7 0 0 1 .77.94 3.45 3.45 0 0 1 -.05 2.88 3.24 3.24 0 0 1 -.91 1 4.21 4.21 0 0 1 -1.33.64 5.91 5.91 0 0 1 -1.58.21 7.79 7.79 0 0 1 -1.43-.12 5.94 5.94 0 0 1 -1.06-.31 2.26 2.26 0 0 1 -.8-.47.7.7 0 0 1 -.23-.48 1.5 1.5 0 0 1 .16-.62c.11-.21.24-.45.41-.72.11.09.25.2.44.33a5.91 5.91 0 0 0 .68.38 4.57 4.57 0 0 0 .88.32 4.19 4.19 0 0 0 1 .12 4.25 4.25 0 0 0 .8-.07 2.31 2.31 0 0 0 .69-.27 1.41 1.41 0 0 0 .5-.5 1.47 1.47 0 0 0 .19-.79 1.41 1.41 0 0 0 -.2-.78 1.59 1.59 0 0 0 -.6-.5 3.07 3.07 0 0 0 -.76-.33 8.15 8.15 0 0 0 -.85-.22 9.69 9.69 0 0 1 -1.26-.35 3.8 3.8 0 0 1 -1.07-.58 2.91 2.91 0 0 1 -.67-3.52 2.62 2.62 0 0 1 .86-1 4.14 4.14 0 0 1 1.24-.57 5.27 5.27 0 0 1 1.44-.2 6.52 6.52 0 0 1 1.58.19 4.33 4.33 0 0 1 1.14.43 1.89 1.89 0 0 1 .62.46.77.77 0 0 1 .15.42 1.72 1.72 0 0 1 -.12.58 4.29 4.29 0 0 1 -.3.69z"/><path d="m27.42 80.49a1.63 1.63 0 0 1 .28 0h.15a1.69 1.69 0 0 1 .94.25 1.23 1.23 0 0 1 .54.84 3.57 3.57 0 0 1 1.2-.9 4.39 4.39 0 0 1 1.93-.38 4.62 4.62 0 0 1 1.67.3 3.65 3.65 0 0 1 1.38.94 4.69 4.69 0 0 1 1 1.68 8 8 0 0 1 .35 2.53 8.16 8.16 0 0 1 -.42 2.83 4.9 4.9 0 0 1 -1.09 1.78 3.81 3.81 0 0 1 -1.49.93 5 5 0 0 1 -1.59.27 3.79 3.79 0 0 1 -1.93-.42 3.27 3.27 0 0 1 -.95-.76v5.75h-1.97zm1.93 8.15a3.91 3.91 0 0 0 .36.4 2.76 2.76 0 0 0 .56.39 4.34 4.34 0 0 0 .75.32 2.93 2.93 0 0 0 .9.14 2.41 2.41 0 0 0 2.13-1 5.3 5.3 0 0 0 .7-3 8.51 8.51 0 0 0 -.14-1.55 3.79 3.79 0 0 0 -.48-1.25 2.42 2.42 0 0 0 -.89-.82 2.75 2.75 0 0 0 -1.37-.31 3.35 3.35 0 0 0 -1.81.45 1.32 1.32 0 0 0 -.71 1.09z"/><path d="m39.36 77a1.29 1.29 0 0 1 .35-.93 1.2 1.2 0 0 1 .88-.37 1.18 1.18 0 0 1 .87.37 1.25 1.25 0 0 1 .35.93 1.15 1.15 0 0 1 -.35.87 1.16 1.16 0 0 1 -.87.35 1.2 1.2 0 0 1 -1.23-1.22zm.34 3.38h.26.15a1.68 1.68 0 0 1 1.1.34 1.48 1.48 0 0 1 .42 1.2v7.22a1.75 1.75 0 0 0 .19.93q.2.27.9.27v.82a2.76 2.76 0 0 1 -.56.11 5.34 5.34 0 0 1 -.69 0 2.12 2.12 0 0 1 -1-.2 1.31 1.31 0 0 1 -.52-.55 2.31 2.31 0 0 1 -.21-.76c0-.28 0-.56 0-.83z"/><path d="m45.24 80.49a1.63 1.63 0 0 1 .28 0h.13a1.69 1.69 0 0 1 .94.26 1.14 1.14 0 0 1 .51.87 3.31 3.31 0 0 1 .95-.9 2.64 2.64 0 0 1 1.48-.42 3.38 3.38 0 0 1 .53 0 2.39 2.39 0 0 1 .54.15 1.2 1.2 0 0 1 .41.28.73.73 0 0 1 .15.48 2 2 0 0 1 -.16.79 4.34 4.34 0 0 1 -.36.69 2.36 2.36 0 0 0 -.64-.42 2.53 2.53 0 0 0 -1.6 0 2.19 2.19 0 0 0 -.62.34 1.79 1.79 0 0 0 -.43.49 1.07 1.07 0 0 0 -.16.57v7.53h-1.95z"/><path d="m52.84 77a1.26 1.26 0 0 1 .36-.93 1.21 1.21 0 0 1 1.74 0 1.25 1.25 0 0 1 .35.93 1.23 1.23 0 1 1 -2.45 0zm.34 3.38h.27.14a1.66 1.66 0 0 1 1.1.34 1.48 1.48 0 0 1 .42 1.2v7.22a1.64 1.64 0 0 0 .2.93c.13.18.42.27.89.27v.82a2.64 2.64 0 0 1 -.55.11 5.6 5.6 0 0 1 -.69 0 2.1 2.1 0 0 1 -1-.2 1.33 1.33 0 0 1 -.53-.55 2.08 2.08 0 0 1 -.2-.76c0-.28 0-.56 0-.83z"/><path d="m58.75 80.49a1.24 1.24 0 0 1 .25 0h.13a1.69 1.69 0 0 1 .94.26 1.17 1.17 0 0 1 .51.89 5.29 5.29 0 0 1 1.42-.95 5.15 5.15 0 0 1 2.13-.41 3.57 3.57 0 0 1 2.36.69 3.1 3.1 0 0 1 1.06 1.7 5 5 0 0 1 .14 1v1.08 6.45h-1.91v-6.38c0-.28 0-.56 0-.82a2.86 2.86 0 0 0 -.12-.74 1.61 1.61 0 0 0 -.67-.91 2.76 2.76 0 0 0 -1.48-.35 4.71 4.71 0 0 0 -1.18.14 3.11 3.11 0 0 0 -.88.36 2.06 2.06 0 0 0 -.57.52 1 1 0 0 0 -.2.59v7.59h-1.93z"/><path d="m78.09 90.3-.46.4a2.71 2.71 0 0 1 -.64.41 4.54 4.54 0 0 1 -.86.31 4.18 4.18 0 0 1 -1 .12 5.1 5.1 0 0 1 -1.7-.29 3.71 3.71 0 0 1 -1.43-.94 4.44 4.44 0 0 1 -1-1.71 8 8 0 0 1 -.4-2.6 8.31 8.31 0 0 1 .4-2.56 5 5 0 0 1 1-1.78 3.72 3.72 0 0 1 1.43-1 4.34 4.34 0 0 1 1.72-.35 4.42 4.42 0 0 1 1.8.33 3.94 3.94 0 0 1 1.2.83 1.09 1.09 0 0 1 .52-.74 1.65 1.65 0 0 1 .79-.23h.25a1.33 1.33 0 0 1 .32 0v9.94a11.43 11.43 0 0 1 -.24 2.47 4.3 4.3 0 0 1 -.83 1.82 3.64 3.64 0 0 1 -1.59 1.15 6.72 6.72 0 0 1 -2.52.4 7.3 7.3 0 0 1 -1.87-.21 5 5 0 0 1 -1.3-.5 1.85 1.85 0 0 1 -.58-.47.74.74 0 0 1 -.17-.48 1.18 1.18 0 0 1 .26-.66c.17-.24.33-.44.46-.59a1.25 1.25 0 0 0 .3.26 5 5 0 0 0 .67.42 5.1 5.1 0 0 0 1 .4 4.37 4.37 0 0 0 1.24.17 4 4 0 0 0 1.74-.31 2.28 2.28 0 0 0 1-.86 3 3 0 0 0 .4-1.3 12.56 12.56 0 0 0 .11-1.7zm0-7.2c-.09-.09-.2-.2-.35-.33a3.15 3.15 0 0 0 -.54-.39 3.77 3.77 0 0 0 -.76-.31 3.32 3.32 0 0 0 -1-.13 2.43 2.43 0 0 0 -2 1 4.66 4.66 0 0 0 -.75 2.89 8.43 8.43 0 0 0 .14 1.64 3.72 3.72 0 0 0 .47 1.3 2.39 2.39 0 0 0 .9.86 2.75 2.75 0 0 0 1.37.31 3.62 3.62 0 0 0 1-.14 3.35 3.35 0 0 0 .81-.34 1.59 1.59 0 0 0 .52-.47 1 1 0 0 0 .18-.55z"/><path d="m95 90.3c-.12.12-.27.25-.45.4a2.78 2.78 0 0 1 -.65.41 4.44 4.44 0 0 1 -.85.31 4.18 4.18 0 0 1 -1 .12 5.1 5.1 0 0 1 -1.7-.29 3.82 3.82 0 0 1 -1.45-.94 4.55 4.55 0 0 1 -1-1.71 8 8 0 0 1 -.42-2.6 8.29 8.29 0 0 1 .37-2.59 5 5 0 0 1 1-1.78 3.87 3.87 0 0 1 1.43-1 4.75 4.75 0 0 1 3.53 0 3.77 3.77 0 0 1 1.19.83 1.1 1.1 0 0 1 .53-.74 1.62 1.62 0 0 1 .79-.23h.25a1.33 1.33 0 0 1 .32 0v9.94a11.43 11.43 0 0 1 -.24 2.47 4.3 4.3 0 0 1 -.83 1.82 3.64 3.64 0 0 1 -1.59 1.15 6.72 6.72 0 0 1 -2.52.4 7.3 7.3 0 0 1 -1.87-.21 5 5 0 0 1 -1.3-.5 1.85 1.85 0 0 1 -.58-.47.74.74 0 0 1 -.17-.48 1.11 1.11 0 0 1 .21-.61c.17-.24.33-.44.46-.59a1.25 1.25 0 0 0 .3.26 4.41 4.41 0 0 0 .67.42 5.1 5.1 0 0 0 1 .4 4.37 4.37 0 0 0 1.24.17 4 4 0 0 0 1.74-.31 2.34 2.34 0 0 0 1-.86 3.34 3.34 0 0 0 .45-1.31 12.65 12.65 0 0 0 .1-1.7zm0-7.2-.35-.33a3.15 3.15 0 0 0 -.54-.39 3.64 3.64 0 0 0 -.77-.31 3.21 3.21 0 0 0 -1-.13 2.43 2.43 0 0 0 -2 1 4.66 4.66 0 0 0 -.75 2.89 9.32 9.32 0 0 0 .13 1.64 3.73 3.73 0 0 0 .48 1.3 2.39 2.39 0 0 0 .9.86 2.75 2.75 0 0 0 1.37.31 3.62 3.62 0 0 0 1-.14 3.35 3.35 0 0 0 .81-.34 1.59 1.59 0 0 0 .52-.47 1 1 0 0 0 .18-.55z"/><path d="m100.26 75.11a1.42 1.42 0 0 1 .27 0h.14a1.66 1.66 0 0 1 1.1.34 1.46 1.46 0 0 1 .42 1.2v12.42a4.73 4.73 0 0 0 0 .58.82.82 0 0 0 .12.4.61.61 0 0 0 .32.23 1.69 1.69 0 0 0 .62.08v.82a2.64 2.64 0 0 1 -.55.11 5.6 5.6 0 0 1 -.69 0 2.17 2.17 0 0 1 -1-.2 1.37 1.37 0 0 1 -.52-.55 2.08 2.08 0 0 1 -.2-.76c0-.28 0-.56 0-.83z"/><path d="m115.2 85.82a8.5 8.5 0 0 1 -.27 2.15 5 5 0 0 1 -.88 1.83 4.4 4.4 0 0 1 -1.55 1.27 5.13 5.13 0 0 1 -2.32.47 5.35 5.35 0 0 1 -2.29-.45 4.24 4.24 0 0 1 -1.54-1.21 5 5 0 0 1 -.87-1.8 8.65 8.65 0 0 1 -.27-2.19 7.38 7.38 0 0 1 .32-2.16 5.16 5.16 0 0 1 1-1.78 4.76 4.76 0 0 1 1.58-1.21 5.66 5.66 0 0 1 4.47 0 4.33 4.33 0 0 1 1.49 1.26 5.07 5.07 0 0 1 .86 1.76 8.08 8.08 0 0 1 .27 2.06zm-2 0a7.3 7.3 0 0 0 -.13-1.4 3.86 3.86 0 0 0 -.44-1.25 2.42 2.42 0 0 0 -.88-.89 2.84 2.84 0 0 0 -1.48-.35 2.74 2.74 0 0 0 -1.44.35 2.53 2.53 0 0 0 -.92.89 3.93 3.93 0 0 0 -.49 1.25 6.59 6.59 0 0 0 -.15 1.4 7.73 7.73 0 0 0 .13 1.42 4 4 0 0 0 .46 1.3 2.79 2.79 0 0 0 .91 1 2.58 2.58 0 0 0 1.45.38 2.73 2.73 0 0 0 1.5-.38 2.44 2.44 0 0 0 .91-1 4.07 4.07 0 0 0 .44-1.3 7.92 7.92 0 0 0 .09-1.39z"/><path d="m118 75.11a1.28 1.28 0 0 1 .26 0h.15a1.68 1.68 0 0 1 1.1.34 1.46 1.46 0 0 1 .42 1.2v4.81a4.11 4.11 0 0 1 1.2-.8 4.4 4.4 0 0 1 1.91-.36 4.66 4.66 0 0 1 1.67.3 3.65 3.65 0 0 1 1.38.94 4.54 4.54 0 0 1 1 1.68 7.74 7.74 0 0 1 .36 2.53 8.41 8.41 0 0 1 -.42 2.83 4.9 4.9 0 0 1 -1.09 1.78 3.88 3.88 0 0 1 -1.49.93 5.1 5.1 0 0 1 -1.59.27 4.39 4.39 0 0 1 -1.15-.13 4.19 4.19 0 0 1 -.85-.33 2.89 2.89 0 0 1 -.59-.41 3.4 3.4 0 0 1 -.34-.37v.9h-1.93zm2 13.53a3.91 3.91 0 0 0 .36.4 2.76 2.76 0 0 0 .56.39 4.34 4.34 0 0 0 .75.32 2.86 2.86 0 0 0 .89.14 2.41 2.41 0 0 0 2.14-1 5.38 5.38 0 0 0 .7-3 7.69 7.69 0 0 0 -.15-1.55 4 4 0 0 0 -.47-1.25 2.42 2.42 0 0 0 -.89-.82 2.75 2.75 0 0 0 -1.37-.31 3.18 3.18 0 0 0 -1.82.48 1.34 1.34 0 0 0 -.7 1.13z"/><path d="m130.73 82.92a3.44 3.44 0 0 1 -.31-.64 1.79 1.79 0 0 1 -.13-.54.74.74 0 0 1 .37-.56 3.58 3.58 0 0 1 .94-.46 6.65 6.65 0 0 1 1.28-.32 8.24 8.24 0 0 1 1.39-.12 6.6 6.6 0 0 1 1.93.25 3.05 3.05 0 0 1 1.25.75 2.9 2.9 0 0 1 .67 1.25 7.44 7.44 0 0 1 .19 1.73v4.47a6.32 6.32 0 0 0 0 .85.9.9 0 0 0 .17.45.61.61 0 0 0 .35.2 2.75 2.75 0 0 0 .55 0v.91a2.51 2.51 0 0 1 -.5.11 4.07 4.07 0 0 1 -.61 0 2.66 2.66 0 0 1 -1.23-.28 1.24 1.24 0 0 1 -.61-1 5.27 5.27 0 0 1 -1.36 1 4.77 4.77 0 0 1 -2.09.4 5.44 5.44 0 0 1 -1.19-.14 2.86 2.86 0 0 1 -1.09-.5 2.77 2.77 0 0 1 -.81-1 3.43 3.43 0 0 1 -.31-1.57 2.93 2.93 0 0 1 .6-1.93 4.28 4.28 0 0 1 1.48-1.18 6.68 6.68 0 0 1 1.9-.59 12.94 12.94 0 0 1 1.85-.18h.48.47v-.28a2.19 2.19 0 0 0 -.49-1.55 2.48 2.48 0 0 0 -1.87-.54 5.06 5.06 0 0 0 -1.72.26 6.66 6.66 0 0 0 -1.37.72zm5.69 2.9h-.65a12.37 12.37 0 0 0 -1.48.09 6 6 0 0 0 -1.36.34 2.63 2.63 0 0 0 -1 .71 1.71 1.71 0 0 0 -.39 1.16 1.92 1.92 0 0 0 .41 1.2 1.83 1.83 0 0 0 1.52.52 3.81 3.81 0 0 0 1.13-.17 4.05 4.05 0 0 0 .94-.42 2.78 2.78 0 0 0 .65-.54.91.91 0 0 0 .23-.57z"/><path d="m141.8 75.11a1.42 1.42 0 0 1 .27 0h.14a1.66 1.66 0 0 1 1.1.34 1.46 1.46 0 0 1 .42 1.2v12.42a4.73 4.73 0 0 0 0 .58.82.82 0 0 0 .12.4.61.61 0 0 0 .32.23 1.69 1.69 0 0 0 .62.08v.82a2.64 2.64 0 0 1 -.55.11 5.6 5.6 0 0 1 -.69 0 2.17 2.17 0 0 1 -1-.2 1.37 1.37 0 0 1 -.52-.55 2.08 2.08 0 0 1 -.2-.76c0-.28 0-.56 0-.83z"/><path d="m152 80.49a1.63 1.63 0 0 1 .28 0h.15a1.67 1.67 0 0 1 .94.25 1.23 1.23 0 0 1 .54.84 3.57 3.57 0 0 1 1.2-.9 4.42 4.42 0 0 1 1.93-.38 4.62 4.62 0 0 1 1.67.3 3.65 3.65 0 0 1 1.38.94 4.55 4.55 0 0 1 1 1.68 8 8 0 0 1 .35 2.53 8.16 8.16 0 0 1 -.42 2.83 4.77 4.77 0 0 1 -1.09 1.78 3.81 3.81 0 0 1 -1.49.93 5 5 0 0 1 -1.59.27 3.79 3.79 0 0 1 -1.93-.42 3.41 3.41 0 0 1 -1-.76v5.75h-1.92zm1.93 8.15a3.91 3.91 0 0 0 .36.4 2.76 2.76 0 0 0 .56.39 4.34 4.34 0 0 0 .75.32 2.93 2.93 0 0 0 .9.14 2.41 2.41 0 0 0 2.13-1 5.3 5.3 0 0 0 .7-3 8.51 8.51 0 0 0 -.14-1.55 3.79 3.79 0 0 0 -.48-1.25 2.42 2.42 0 0 0 -.89-.82 2.72 2.72 0 0 0 -1.37-.31 3.29 3.29 0 0 0 -1.8.45 1.31 1.31 0 0 0 -.72 1.09z"/><path d="m164.25 80.49a1.74 1.74 0 0 1 .29 0h.12a1.72 1.72 0 0 1 1 .26 1.2 1.2 0 0 1 .51.87 3.31 3.31 0 0 1 .95-.9 2.59 2.59 0 0 1 1.47-.42 3.5 3.5 0 0 1 .54 0 2.18 2.18 0 0 1 .53.15 1.11 1.11 0 0 1 .41.28.68.68 0 0 1 .16.48 2 2 0 0 1 -.23.79 3.63 3.63 0 0 1 -.37.69 2.17 2.17 0 0 0 -.63-.42 2.38 2.38 0 0 0 -.86-.14 2.2 2.2 0 0 0 -1.37.46 2 2 0 0 0 -.43.49 1.17 1.17 0 0 0 -.16.57v7.55h-1.93z"/><path d="m181 85.82a8.5 8.5 0 0 1 -.27 2.15 5.17 5.17 0 0 1 -.87 1.83 4.35 4.35 0 0 1 -1.56 1.27 5.06 5.06 0 0 1 -2.31.47 5.36 5.36 0 0 1 -2.3-.45 4.24 4.24 0 0 1 -1.54-1.21 5 5 0 0 1 -.86-1.8 8.65 8.65 0 0 1 -.27-2.19 7.37 7.37 0 0 1 .31-2.16 5.18 5.18 0 0 1 1-1.78 4.66 4.66 0 0 1 1.58-1.21 5 5 0 0 1 2.21-.46 5.2 5.2 0 0 1 2.26.46 4.29 4.29 0 0 1 1.45 1.26 5.07 5.07 0 0 1 .86 1.76 8.08 8.08 0 0 1 .31 2.06zm-2 0a8.18 8.18 0 0 0 -.12-1.4 3.88 3.88 0 0 0 -.45-1.25 2.35 2.35 0 0 0 -.88-.89 3.22 3.22 0 0 0 -2.92 0 2.61 2.61 0 0 0 -.92.89 4.18 4.18 0 0 0 -.49 1.25 6.58 6.58 0 0 0 -.14 1.4 8.69 8.69 0 0 0 .12 1.42 4 4 0 0 0 .47 1.3 2.76 2.76 0 0 0 .9 1 2.62 2.62 0 0 0 1.46.38 2.78 2.78 0 0 0 1.5-.38 2.48 2.48 0 0 0 .9-1 4.08 4.08 0 0 0 .45-1.3 8.9 8.9 0 0 0 .04-1.39z"/><path d="m183.33 79.35a4.75 4.75 0 0 1 1-3.31 3.8 3.8 0 0 1 3-1.11 4.75 4.75 0 0 1 1.29.16 4.54 4.54 0 0 1 1 .38 2.35 2.35 0 0 1 .65.49.78.78 0 0 1 .23.49 1.12 1.12 0 0 1 -.19.62 5 5 0 0 1 -.38.56h-.3a2.79 2.79 0 0 0 -.94-.76 2.72 2.72 0 0 0 -1.26-.29 2.19 2.19 0 0 0 -1.59.56 2.62 2.62 0 0 0 -.57 1.92v1.47h3.82v1.66h-3.82v9h-1.92z"/><path d="m192.47 86.23a4.46 4.46 0 0 0 .88 2.67 3 3 0 0 0 2.48 1 4.39 4.39 0 0 0 1.14-.14 4.06 4.06 0 0 0 .86-.33 2.28 2.28 0 0 0 .6-.42c.16-.15.29-.28.4-.4a4 4 0 0 1 .44.68 1.3 1.3 0 0 1 .19.56.69.69 0 0 1 -.11.38 1.31 1.31 0 0 1 -.39.4 4.58 4.58 0 0 1 -1.33.64 6.42 6.42 0 0 1 -2 .26 6.6 6.6 0 0 1 -2-.3 4.22 4.22 0 0 1 -1.64-1 4.8 4.8 0 0 1 -1.12-1.78 7.86 7.86 0 0 1 -.4-2.69 6.64 6.64 0 0 1 .42-2.48 5 5 0 0 1 1.1-1.71 4.19 4.19 0 0 1 1.55-1 5.31 5.31 0 0 1 1.81-.32 4.6 4.6 0 0 1 2 .39 3.79 3.79 0 0 1 1.35 1 4.11 4.11 0 0 1 .77 1.5 6.14 6.14 0 0 1 .25 1.76v.65a4 4 0 0 1 0 .62zm5.32-1.45a5.1 5.1 0 0 0 -.13-1.14 2.38 2.38 0 0 0 -.42-.91 2 2 0 0 0 -.78-.63 2.87 2.87 0 0 0 -1.19-.23 2.61 2.61 0 0 0 -2 .78 3.24 3.24 0 0 0 -.85 2.13z"/><path d="m208.27 83a3.24 3.24 0 0 0 -1.12-.83 3.69 3.69 0 0 0 -1.58-.35 3.93 3.93 0 0 0 -.65.06 2.34 2.34 0 0 0 -.65.2 1.42 1.42 0 0 0 -.52.42 1.14 1.14 0 0 0 -.2.68 1.1 1.1 0 0 0 .17.62 1.45 1.45 0 0 0 .48.43 3.09 3.09 0 0 0 .71.3 8.76 8.76 0 0 0 .89.24 11.06 11.06 0 0 1 1.31.4 4.36 4.36 0 0 1 1.13.61 2.82 2.82 0 0 1 .77.94 3.14 3.14 0 0 1 .28 1.41 3 3 0 0 1 -.34 1.47 3.13 3.13 0 0 1 -.91 1 4.16 4.16 0 0 1 -1.32.64 6 6 0 0 1 -1.58.21 7.71 7.71 0 0 1 -1.43-.12 6.34 6.34 0 0 1 -1.07-.31 2.2 2.2 0 0 1 -.79-.47.7.7 0 0 1 -.23-.48 1.36 1.36 0 0 1 .16-.62 7.31 7.31 0 0 1 .41-.72 4.51 4.51 0 0 0 .44.33 5.91 5.91 0 0 0 .68.38 4.57 4.57 0 0 0 .88.32 4.08 4.08 0 0 0 1 .12 4.15 4.15 0 0 0 .79-.07 2.12 2.12 0 0 0 .69-.27 1.33 1.33 0 0 0 .5-.5 1.47 1.47 0 0 0 .2-.79 1.33 1.33 0 0 0 -.21-.78 1.47 1.47 0 0 0 -.54-.51 3.07 3.07 0 0 0 -.76-.33c-.28-.09-.57-.16-.85-.22a9.69 9.69 0 0 1 -1.26-.35 3.8 3.8 0 0 1 -1.07-.58 2.94 2.94 0 0 1 -.68-3.48 2.65 2.65 0 0 1 .87-1 4.09 4.09 0 0 1 1.23-.57 5.34 5.34 0 0 1 1.45-.2 6.37 6.37 0 0 1 1.57.19 4.41 4.41 0 0 1 1.15.43 1.83 1.83 0 0 1 .61.46.72.72 0 0 1 .16.42 1.72 1.72 0 0 1 -.12.58 5.51 5.51 0 0 1 -.31.65z"/><path d="m217.85 83a3.24 3.24 0 0 0 -1.12-.83 3.69 3.69 0 0 0 -1.58-.35 3.93 3.93 0 0 0 -.65.06 2.52 2.52 0 0 0 -.66.2 1.48 1.48 0 0 0 -.51.42 1.14 1.14 0 0 0 -.2.68 1.1 1.1 0 0 0 .17.62 1.45 1.45 0 0 0 .48.43 3.09 3.09 0 0 0 .71.3 8.76 8.76 0 0 0 .89.24 11.06 11.06 0 0 1 1.31.4 4.36 4.36 0 0 1 1.13.61 2.82 2.82 0 0 1 .77.94 3.14 3.14 0 0 1 .28 1.41 3 3 0 0 1 -.34 1.47 3.24 3.24 0 0 1 -.91 1 4.16 4.16 0 0 1 -1.32.64 6 6 0 0 1 -1.58.21 7.71 7.71 0 0 1 -1.43-.12 6.34 6.34 0 0 1 -1.07-.31 2.2 2.2 0 0 1 -.79-.47.7.7 0 0 1 -.23-.48 1.36 1.36 0 0 1 .16-.62 7.31 7.31 0 0 1 .41-.72 4.51 4.51 0 0 0 .44.33 5.91 5.91 0 0 0 .68.38 4.57 4.57 0 0 0 .88.32 4.08 4.08 0 0 0 1 .12 4.15 4.15 0 0 0 .79-.07 2.12 2.12 0 0 0 .69-.27 1.33 1.33 0 0 0 .5-.5 1.47 1.47 0 0 0 .2-.79 1.33 1.33 0 0 0 -.21-.78 1.65 1.65 0 0 0 -.54-.51 3.07 3.07 0 0 0 -.76-.33c-.28-.09-.57-.16-.85-.22a9.69 9.69 0 0 1 -1.26-.35 3.67 3.67 0 0 1 -1.07-.58 2.94 2.94 0 0 1 -.72-3.55 2.65 2.65 0 0 1 .87-1 4.09 4.09 0 0 1 1.23-.57 5.33 5.33 0 0 1 1.44-.2 6.39 6.39 0 0 1 1.58.19 4.41 4.41 0 0 1 1.15.43 1.83 1.83 0 0 1 .61.46.72.72 0 0 1 .16.42 1.72 1.72 0 0 1 -.12.58 5.51 5.51 0 0 1 -.31.65z"/><path d="m221.23 77a1.29 1.29 0 0 1 .35-.93 1.2 1.2 0 0 1 .88-.37 1.16 1.16 0 0 1 .87.37 1.25 1.25 0 0 1 .35.93 1.2 1.2 0 0 1 -1.22 1.22 1.2 1.2 0 0 1 -1.23-1.22zm.34 3.38h.26.17a1.66 1.66 0 0 1 1.1.34 1.48 1.48 0 0 1 .42 1.2v7.22a1.64 1.64 0 0 0 .2.93c.12.18.42.27.89.27v.82a2.64 2.64 0 0 1 -.55.11 5.62 5.62 0 0 1 -.7 0 2.15 2.15 0 0 1 -1-.2 1.37 1.37 0 0 1 -.52-.55 2.08 2.08 0 0 1 -.2-.76 7.81 7.81 0 0 1 0-.83z"/><path d="m236.51 85.82a8.5 8.5 0 0 1 -.27 2.15 5.18 5.18 0 0 1 -.88 1.83 4.4 4.4 0 0 1 -1.55 1.27 5.13 5.13 0 0 1 -2.32.47 5.35 5.35 0 0 1 -2.29-.45 4.24 4.24 0 0 1 -1.54-1.21 5 5 0 0 1 -.87-1.8 8.65 8.65 0 0 1 -.27-2.19 7.38 7.38 0 0 1 .32-2.16 5.16 5.16 0 0 1 .95-1.78 4.76 4.76 0 0 1 1.58-1.21 5.1 5.1 0 0 1 2.21-.46 5.2 5.2 0 0 1 2.26.46 4.33 4.33 0 0 1 1.54 1.26 5.07 5.07 0 0 1 .86 1.76 8.08 8.08 0 0 1 .27 2.06zm-2 0a7.3 7.3 0 0 0 -.13-1.4 3.86 3.86 0 0 0 -.44-1.25 2.38 2.38 0 0 0 -.89-.89 2.78 2.78 0 0 0 -1.47-.35 2.74 2.74 0 0 0 -1.44.35 2.53 2.53 0 0 0 -.92.89 3.93 3.93 0 0 0 -.49 1.25 6.59 6.59 0 0 0 -.15 1.4 7.73 7.73 0 0 0 .13 1.42 4 4 0 0 0 .46 1.3 2.79 2.79 0 0 0 .91 1 2.58 2.58 0 0 0 1.45.38 2.73 2.73 0 0 0 1.5-.38 2.51 2.51 0 0 0 .91-1 4.07 4.07 0 0 0 .44-1.3 7.92 7.92 0 0 0 .09-1.39z"/><path d="m239.35 80.49a1.24 1.24 0 0 1 .25 0h.13a1.74 1.74 0 0 1 1 .26 1.19 1.19 0 0 1 .51.89 5.07 5.07 0 0 1 1.41-.93 5.15 5.15 0 0 1 2.13-.41 3.57 3.57 0 0 1 2.36.69 3.1 3.1 0 0 1 1.06 1.7 4.4 4.4 0 0 1 .14 1v1.08 6.43h-1.93v-6.38c0-.28 0-.56 0-.82a2.49 2.49 0 0 0 -.12-.74 1.61 1.61 0 0 0 -.67-.91 2.76 2.76 0 0 0 -1.47-.32 4.77 4.77 0 0 0 -1.18.14 3.23 3.23 0 0 0 -.88.36 2.06 2.06 0 0 0 -.57.52 1 1 0 0 0 -.2.59v7.56h-1.93z"/><path d="m252.13 82.92a3.44 3.44 0 0 1 -.31-.64 1.72 1.72 0 0 1 -.12-.54.72.72 0 0 1 .36-.56 3.74 3.74 0 0 1 .94-.46 6.65 6.65 0 0 1 1.28-.32 8.24 8.24 0 0 1 1.39-.12 6.6 6.6 0 0 1 1.93.25 3.05 3.05 0 0 1 1.25.75 2.9 2.9 0 0 1 .67 1.25 7.44 7.44 0 0 1 .19 1.73v4.47a6.32 6.32 0 0 0 0 .85.9.9 0 0 0 .18.45.56.56 0 0 0 .34.2 2.75 2.75 0 0 0 .55 0v.91a2.51 2.51 0 0 1 -.5.11 4.07 4.07 0 0 1 -.61 0 2.66 2.66 0 0 1 -1.23-.28 1.24 1.24 0 0 1 -.61-1 5.27 5.27 0 0 1 -1.36 1 4.77 4.77 0 0 1 -2.09.4 5.44 5.44 0 0 1 -1.19-.14 2.86 2.86 0 0 1 -1.09-.5 2.77 2.77 0 0 1 -.81-1 3.43 3.43 0 0 1 -.31-1.57 3 3 0 0 1 .6-1.93 4.28 4.28 0 0 1 1.48-1.18 6.78 6.78 0 0 1 1.9-.59 12.94 12.94 0 0 1 1.85-.18h.48.47v-.28a2.19 2.19 0 0 0 -.49-1.55 2.47 2.47 0 0 0 -1.87-.54 5.06 5.06 0 0 0 -1.72.26 6.66 6.66 0 0 0 -1.37.72zm5.7 2.9h-.66a12.37 12.37 0 0 0 -1.48.09 6 6 0 0 0 -1.36.34 2.63 2.63 0 0 0 -1 .71 1.71 1.71 0 0 0 -.38 1.16 1.91 1.91 0 0 0 .4 1.2 1.86 1.86 0 0 0 1.53.52 3.8 3.8 0 0 0 1.12-.17 4.05 4.05 0 0 0 .94-.42 2.78 2.78 0 0 0 .65-.54.93.93 0 0 0 .24-.57z"/><path d="m263.21 75.11a1.28 1.28 0 0 1 .26 0h.14a1.66 1.66 0 0 1 1.1.34 1.46 1.46 0 0 1 .42 1.2v12.42a4.73 4.73 0 0 0 0 .58.82.82 0 0 0 .12.4.65.65 0 0 0 .32.23 1.69 1.69 0 0 0 .62.08v.82a2.64 2.64 0 0 1 -.55.11 5.6 5.6 0 0 1 -.69 0 2.17 2.17 0 0 1 -1-.2 1.37 1.37 0 0 1 -.52-.55 2.08 2.08 0 0 1 -.2-.76c0-.28 0-.56 0-.83z"/><path d="m274.58 83a3.19 3.19 0 0 0 -1.13-.83 3.64 3.64 0 0 0 -1.57-.35 3.83 3.83 0 0 0 -.65.06 2.41 2.41 0 0 0 -.66.2 1.48 1.48 0 0 0 -.51.42 1.08 1.08 0 0 0 -.2.68 1 1 0 0 0 .17.62 1.51 1.51 0 0 0 .47.43 3.39 3.39 0 0 0 .72.3c.27.09.57.17.88.24a10.68 10.68 0 0 1 1.32.4 4.29 4.29 0 0 1 1.12.61 2.73 2.73 0 0 1 .78.94 3.28 3.28 0 0 1 .28 1.41 3 3 0 0 1 -.34 1.47 3.24 3.24 0 0 1 -.91 1 4.21 4.21 0 0 1 -1.33.64 5.83 5.83 0 0 1 -1.57.21 7.71 7.71 0 0 1 -1.45-.05 6.07 6.07 0 0 1 -1.07-.31 2.26 2.26 0 0 1 -.8-.47.68.68 0 0 1 -.22-.48 1.36 1.36 0 0 1 .16-.62c.1-.21.24-.45.4-.72l.45.33a5.17 5.17 0 0 0 .68.38 4.24 4.24 0 0 0 .87.32 4.49 4.49 0 0 0 1.82 0 2.21 2.21 0 0 0 .69-.27 1.41 1.41 0 0 0 .5-.5 1.47 1.47 0 0 0 .19-.79 1.41 1.41 0 0 0 -.2-.78 1.59 1.59 0 0 0 -.55-.51 2.91 2.91 0 0 0 -.76-.33 8.15 8.15 0 0 0 -.85-.22 9.69 9.69 0 0 1 -1.26-.35 3.8 3.8 0 0 1 -1.07-.58 2.71 2.71 0 0 1 -.74-.9 3 3 0 0 1 0-2.65 2.62 2.62 0 0 1 .86-1 4.26 4.26 0 0 1 1.24-.57 5.27 5.27 0 0 1 1.44-.2 6.45 6.45 0 0 1 1.58.19 4.33 4.33 0 0 1 1.14.43 1.89 1.89 0 0 1 .62.46.79.79 0 0 1 .16.42 1.53 1.53 0 0 1 -.13.58 4.22 4.22 0 0 1 -.3.65z"/><path d="m.05 29.7a6.36 6.36 0 0 1 .68-.08h.62a5.3 5.3 0 0 1 1.09.13 3 3 0 0 1 1 .47 2.65 2.65 0 0 1 .78 1 3.9 3.9 0 0 1 .31 1.69v11.55h16.58v-14.76a6.36 6.36 0 0 1 .68-.08h.62a5.39 5.39 0 0 1 1.09.13 3 3 0 0 1 1 .47 2.65 2.65 0 0 1 .78 1 3.9 3.9 0 0 1 .31 1.69v31.63h-4.48v-16.12h-16.54v16.12h-4.52z"/><path d="m31.71 36.4.54-.07h.5a4.08 4.08 0 0 1 .89.11 2.28 2.28 0 0 1 .84.38 2 2 0 0 1 .63.79 3.17 3.17 0 0 1 .25 1.39v14.87a15.47 15.47 0 0 0 .31 3.23 7 7 0 0 0 1 2.54 4.81 4.81 0 0 0 2 1.66 7.31 7.31 0 0 0 3.13.59 7.77 7.77 0 0 0 4.5-1.09 5.33 5.33 0 0 0 2-3.61 19.72 19.72 0 0 0 .25-3.32v-17.47l.54-.07h.51a4 4 0 0 1 .88.11 2.14 2.14 0 0 1 .84.38 2 2 0 0 1 .63.79 3.17 3.17 0 0 1 .29 1.39v14.4 1.73s0 1.14-.1 1.68a11.43 11.43 0 0 1 -.82 3.29 7.45 7.45 0 0 1 -1.91 2.67 9.17 9.17 0 0 1 -3.13 1.79 13.93 13.93 0 0 1 -4.52.65c-3 0-5.3-.68-6.82-2a9.45 9.45 0 0 1 -3-5.59 11.18 11.18 0 0 1 -.21-1.93c0-.7 0-1.41 0-2.14z"/><path d="m58.37 36.56c1.52-.16 2.83-.27 4-.33s2.17-.09 3.15-.09a17.89 17.89 0 0 1 6.72 1.1 10.94 10.94 0 0 1 4.31 3 11.07 11.07 0 0 1 2.29 4.41 21.12 21.12 0 0 1 .62 5.35 18.65 18.65 0 0 1 -1.26 7 11.14 11.14 0 0 1 -7.9 7 21.45 21.45 0 0 1 -5.37.61h-6.56zm7.14 24.87a11.51 11.51 0 0 0 4.77-.88 8.32 8.32 0 0 0 3.15-2.4 9.33 9.33 0 0 0 1.72-3.55 17.49 17.49 0 0 0 .53-4.39 19.72 19.72 0 0 0 -.46-4.34 8.5 8.5 0 0 0 -1.64-3.45 7.75 7.75 0 0 0 -3.13-2.24 13 13 0 0 0 -4.89-.8c-.56 0-1.14 0-1.75 0a17.58 17.58 0 0 0 -1.78.17v21.88z"/><path d="m84.25 36.56c1.51-.16 2.82-.27 3.94-.33s2.17-.09 3.15-.09a17.89 17.89 0 0 1 6.72 1.1 10.86 10.86 0 0 1 4.31 3 11.07 11.07 0 0 1 2.29 4.41 20.68 20.68 0 0 1 .67 5.37 18.65 18.65 0 0 1 -1.26 7 11.14 11.14 0 0 1 -7.9 7 21.45 21.45 0 0 1 -5.37.61h-6.55zm7.14 24.87a11.5 11.5 0 0 0 4.76-.88 8.17 8.17 0 0 0 3.15-2.4 9.49 9.49 0 0 0 1.7-3.55 17.5 17.5 0 0 0 .52-4.39 19.13 19.13 0 0 0 -.46-4.34 8.5 8.5 0 0 0 -1.64-3.45 7.68 7.68 0 0 0 -3.13-2.24 13 13 0 0 0 -4.89-.8c-.56 0-1.14 0-1.74 0a17.5 17.5 0 0 0 -1.79.17v21.88z"/><path d="m110.92 36.44h16.21a1.93 1.93 0 0 1 .06.36 3.72 3.72 0 0 1 0 .52 2.47 2.47 0 0 1 -.54 1.62 2.57 2.57 0 0 1 -2 .65h-10.08v8.65h9.53v3.23h-9.53v9.92h10.67a2.62 2.62 0 0 1 2 .65 2.22 2.22 0 0 1 .63 1.61v.35a4.12 4.12 0 0 1 0 .53h-16.95z"/><path d="m133.51 36.52c1-.14 2.09-.23 3.26-.29s2.27-.09 3.34-.09c3.83 0 6.59.66 8.27 2s2.52 3.32 2.52 6.07a9.38 9.38 0 0 1 -.5 3.15 8.28 8.28 0 0 1 -1.35 2.41 7.08 7.08 0 0 1 -2 1.68 8.41 8.41 0 0 1 -2.37 1l7.68 12.18a3.38 3.38 0 0 1 -1 .29 6.21 6.21 0 0 1 -1 .08 3.34 3.34 0 0 1 -3-1.63l-6.46-10.37h-3.73v11.54h-3.66zm6.64 13.4a12.77 12.77 0 0 0 2.81-.29 6.07 6.07 0 0 0 2.19-1 4.49 4.49 0 0 0 1.42-1.72 6.83 6.83 0 0 0 0-5.13 3.7 3.7 0 0 0 -1.38-1.57 5.79 5.79 0 0 0 -2.19-.78 17.46 17.46 0 0 0 -2.83-.21c-.65 0-1.21 0-1.7 0s-.93.07-1.32.13v10.5z"/><path d="m171.19 41a9.92 9.92 0 0 0 -2.31-1.26 9.07 9.07 0 0 0 -3.36-.58 7.54 7.54 0 0 0 -2.46.35 4.66 4.66 0 0 0 -1.6.93 3.33 3.33 0 0 0 -.88 1.34 4.77 4.77 0 0 0 -.27 1.58 3.63 3.63 0 0 0 .42 1.8 3.93 3.93 0 0 0 1.27 1.3 9.38 9.38 0 0 0 1.93 1c.75.31 1.62.62 2.6.93a22.23 22.23 0 0 1 2.77 1.11 9.23 9.23 0 0 1 2.36 1.62 7.21 7.21 0 0 1 1.61 2.31 7.53 7.53 0 0 1 .61 3.15 9.2 9.2 0 0 1 -.69 3.69 7.27 7.27 0 0 1 -2 2.73 8.28 8.28 0 0 1 -3 1.64 12.91 12.91 0 0 1 -3.84.55 17.38 17.38 0 0 1 -4.31-.51 8.73 8.73 0 0 1 -3.12-1.34 1.89 1.89 0 0 1 -1-1.55 2.66 2.66 0 0 1 .37-1.18 8.75 8.75 0 0 1 .89-1.35 13.78 13.78 0 0 0 3.21 1.92 10 10 0 0 0 4 .82 7.68 7.68 0 0 0 2.73-.42 4.82 4.82 0 0 0 1.74-1.1 4 4 0 0 0 .95-1.53 5.63 5.63 0 0 0 .29-1.78 5.35 5.35 0 0 0 -.36-2.08 3.93 3.93 0 0 0 -1.05-1.5 6.68 6.68 0 0 0 -1.74-1.11 20.8 20.8 0 0 0 -2.39-.9c-1-.31-2-.65-3-1a9.83 9.83 0 0 1 -2.56-1.52 6.54 6.54 0 0 1 -2.45-5.44 7.7 7.7 0 0 1 .69-3.34 6.81 6.81 0 0 1 1.89-2.41 8.15 8.15 0 0 1 2.87-1.47 11.94 11.94 0 0 1 3.57-.51 15.7 15.7 0 0 1 3.33.4 10.21 10.21 0 0 1 3.05 1.16 5.88 5.88 0 0 1 1.13.9 1.55 1.55 0 0 1 .47 1.11 2 2 0 0 1 -.4 1.09 8 8 0 0 1 -1 1.18c-.11-.11-.25-.23-.4-.36z"/><path d="m179 36.44h16.21c0 .14.05.26.06.36s0 .27 0 .52a2.47 2.47 0 0 1 -.54 1.62 2.63 2.63 0 0 1 -2.06.65h-10v8.41h9.53v3.19h-9.53v13.35h-3.67z"/><path d="m199.37 36.4.54-.07h.51a4.34 4.34 0 0 1 .86.09 2.09 2.09 0 0 1 .84.37 2.36 2.36 0 0 1 .65.8 3.56 3.56 0 0 1 .29 1.39v25.56h-3.69z"/><path d="m210.08 36.44h16.21a1.93 1.93 0 0 1 .06.36 3.72 3.72 0 0 1 0 .52 2.47 2.47 0 0 1 -.54 1.62 2.57 2.57 0 0 1 -2 .65h-10.08v8.65h9.53v3.23h-9.53v9.92h10.67a2.62 2.62 0 0 1 2 .65 2.22 2.22 0 0 1 .63 1.61v.35a4.12 4.12 0 0 1 0 .53h-16.95z"/><path d="m231.79 36.4.55-.07h.5a4 4 0 0 1 .88.11 2.14 2.14 0 0 1 .84.38 2 2 0 0 1 .63.79 3.17 3.17 0 0 1 .25 1.37v22.37h9.75a2.47 2.47 0 0 1 1.93.65 2.27 2.27 0 0 1 .59 1.57v.43.57h-15.92z"/><path d="m251.82 29.9c1.87-.2 3.5-.34 4.88-.41s2.69-.11 3.9-.11a22.24 22.24 0 0 1 8.32 1.36 13.53 13.53 0 0 1 5.33 3.69 13.72 13.72 0 0 1 2.84 5.46 25.94 25.94 0 0 1 .83 6.65 23.07 23.07 0 0 1 -1.56 8.64 13.76 13.76 0 0 1 -9.78 8.6 25.83 25.83 0 0 1 -6.65.76h-8.11zm8.84 30.79a14.42 14.42 0 0 0 5.9-1.09 10.29 10.29 0 0 0 3.9-3 11.53 11.53 0 0 0 2.13-4.39 21.87 21.87 0 0 0 .65-5.44 23.94 23.94 0 0 0 -.57-5.38 10.35 10.35 0 0 0 -2-4.26 9.46 9.46 0 0 0 -3.87-2.78 16.14 16.14 0 0 0 -6.06-1c-.7 0-1.42 0-2.16 0s-1.48.1-2.21.21v27z"/></g></svg>